<?xml version="1.0" encoding="UTF-8"?>
<svg width="16px" height="16px" viewBox="0 0 16 16" version="1.1" xmlns="http://www.w3.org/2000/svg" xmlns:xlink="http://www.w3.org/1999/xlink">
    <!-- Generator: Sketch 47.1 (45422) - http://www.bohemiancoding.com/sketch -->
    <title>add</title>
    <desc>Created with Sketch.</desc>
    <defs></defs>
    <g id="顺丰物流云-控制台" stroke="none" stroke-width="1" fill="none" fill-rule="evenodd">
        <g id="03-1-用户组管理" transform="translate(-1205.000000, -325.000000)" fill="#128DFF">
            <g id="add" transform="translate(1205.000000, 325.000000)">
                <g id="myarticle-active-copy-5" fill-rule="nonzero">
                    <path d="M2,14 L2,2 L15,2 C15.5522847,2 16,1.55228475 16,1 C16,0.44771525 15.5522847,0 15,0 L1,0 C0.44771525,0 0,0.44771525 0,1 L0,15 C0,15.5522847 0.44771525,16 1,16 L15,16 C15.5522847,16 16,15.5522847 16,15 L16,1 C16,0.44771525 15.5522847,0 15,0 C14.4477153,0 14,0.44771525 14,1 L14,14 L2,14 Z" id="Path-4"></path>
                </g>
                <rect id="Rectangle-6" x="4" y="7" width="8" height="2" rx="1"></rect>
                <rect id="Rectangle-6-Copy" transform="translate(8.000000, 8.000000) rotate(-270.000000) translate(-8.000000, -8.000000) " x="4" y="7" width="8" height="2" rx="1"></rect>
            </g>
        </g>
    </g>
</svg>