<?xml version="1.0" encoding="UTF-8"?>
<svg width="16px" height="16px" viewBox="0 0 16 16" version="1.1" xmlns="http://www.w3.org/2000/svg" xmlns:xlink="http://www.w3.org/1999/xlink">
    <!-- Generator: Sketch 47.1 (45422) - http://www.bohemiancoding.com/sketch -->
    <title>delete</title>
    <desc>Created with Sketch.</desc>
    <defs></defs>
    <g id="顺丰物流云-控制台" stroke="none" stroke-width="1" fill="none" fill-rule="evenodd">
        <g id="03-1-用户组管理" transform="translate(-1261.000000, -325.000000)" fill="#128DFF">
            <g id="delete" transform="translate(1261.000000, 325.000000)">
                <path d="M16,4 C16,3.44771525 15.5601869,3 15.0034652,3 L0.996534824,3 C0.446163838,3 0,3.44386482 0,4 C0,4.55228475 0.439813137,5 0.996534824,5 L1,14.0029953 C1,15.1059106 1.89821238,16 2.99079514,16 L13.0092049,16 C14.1086907,16 15,15.1050211 15,14.0029953 L15,5 C15.5538362,5 16,4.55613518 16,4 Z M13,14.0029953 C13,14.0022879 2.99079514,14 2.99079514,14 C3.00072114,14 3,4.99700466 3,4.99700466 C3,4.99771206 13.0092049,5 13.0092049,5 C12.9992789,5 13,14.0029953 13,14.0029953 Z M5,6.99077797 L5,12.009222 C5,12.5564136 5.44386482,13 6,13 C6.55228475,13 7,12.5490248 7,12.009222 L7,6.99077797 C7,6.44358641 6.55613518,6 6,6 C5.44771525,6 5,6.45097518 5,6.99077797 Z M9,6.99077797 C9,6.45097518 9.44771525,6 10,6 C10.5561352,6 11,6.44358641 11,6.99077797 L11,12.009222 C11,12.5490248 10.5522847,13 10,13 C9.44386482,13 9,12.5564136 9,12.009222 L9,6.99077797 Z M6,0 L10,0 C10.5522847,-1.01453063e-16 11,0.44771525 11,1 L11,1 C11,1.55228475 10.5522847,2 10,2 L6,2 C5.44771525,2 5,1.55228475 5,1 L5,1 L5,1 C5,0.44771525 5.44771525,1.01453063e-16 6,0 Z" id="Combined-Shape"></path>
            </g>
        </g>
    </g>
</svg>