<?xml version="1.0" encoding="UTF-8"?>
<svg width="16px" height="16px" viewBox="0 0 16 16" version="1.1" xmlns="http://www.w3.org/2000/svg" xmlns:xlink="http://www.w3.org/1999/xlink">
    <!-- Generator: Sketch 47.1 (45422) - http://www.bohemiancoding.com/sketch -->
    <title>detail</title>
    <desc>Created with Sketch.</desc>
    <defs></defs>
    <g id="顺丰物流云-控制台" stroke="none" stroke-width="1" fill="none" fill-rule="evenodd">
        <g id="03-1-用户组管理" transform="translate(-1149.000000, -325.000000)">
            <g id="detail" transform="translate(1157.000000, 333.000000) rotate(-270.000000) translate(-1157.000000, -333.000000) translate(1149.000000, 325.000000)">
                <path d="M2,14 L2,2 L7,2 C7.55228475,2 8,1.55228475 8,1 C8,0.44771525 7.55228475,0 7,0 L1,0 C0.44771525,0 0,0.44771525 0,1 L0,15 C0,15.5522847 0.44771525,16 1,16 L15,16 C15.5522847,16 16,15.5522847 16,15 L16,9 C16,8.44771525 15.5522847,8 15,8 C14.4477153,8 14,8.44771525 14,9 L14,14 L2,14 Z" id="Path-4" fill="#128DFF" fill-rule="nonzero"></path>
                <path d="M11.7071068,5.41421356 L14,2.70710678 C14.3905243,2.31658249 14.3905243,1.68341751 14,1.29289322 C13.6094757,0.902368927 12.9763107,0.902368927 12.5857864,1.29289322 L10.2928932,4 C9.90236893,4.39052429 9.90236893,5.02368927 10.2928932,5.41421356 C10.6834175,5.80473785 11.3165825,5.80473785 11.7071068,5.41421356 Z" id="Path-5" fill="#128DFF" fill-rule="nonzero"></path>
                <circle id="Oval" stroke="#128DFF" stroke-width="2" cx="9" cy="7" r="3"></circle>
            </g>
        </g>
    </g>
</svg>