<?xml version="1.0" encoding="UTF-8"?>
<svg width="16px" height="16px" viewBox="0 0 16 16" version="1.1" xmlns="http://www.w3.org/2000/svg" xmlns:xlink="http://www.w3.org/1999/xlink">
    <!-- Generator: Sketch 47.1 (45422) - http://www.bohemiancoding.com/sketch -->
    <title>edit</title>
    <desc>Created with Sketch.</desc>
    <defs></defs>
    <g id="顺丰物流云-控制台" stroke="none" stroke-width="1" fill="none" fill-rule="evenodd">
        <g id="03-1-用户组管理" transform="translate(-1314.000000, -325.000000)" fill-rule="nonzero" fill="#128DFF">
            <g id="edit" transform="translate(1314.000000, 325.000000)">
                <g id="myarticle-active">
                    <path d="M2,14 L2,2 L9,2 C9.55228475,2 10,1.55228475 10,1 C10,0.44771525 9.55228475,0 9,0 L1,0 C0.44771525,0 0,0.44771525 0,1 L0,15 C0,15.5522847 0.44771525,16 1,16 L15,16 C15.5522847,16 16,15.5522847 16,15 L16,8 C16,7.44771525 15.5522847,7 15,7 C14.4477153,7 14,7.44771525 14,8 L14,14 L2,14 Z" id="Path-4"></path>
                    <path d="M7.70710678,9.70710678 L15.7071068,1.70710678 C16.0976311,1.31658249 16.0976311,0.683417511 15.7071068,0.292893219 C15.3165825,-0.0976310729 14.6834175,-0.0976310729 14.2928932,0.292893219 L6.29289322,8.29289322 C5.90236893,8.68341751 5.90236893,9.31658249 6.29289322,9.70710678 C6.68341751,10.0976311 7.31658249,10.0976311 7.70710678,9.70710678 Z" id="Path-5"></path>
                </g>
            </g>
        </g>
    </g>
</svg>